<svg xmlns="http://www.w3.org/2000/svg" width="120" height="20" viewBox="0 0 120 20">
    <path fill="#fff" d="M776.645 389.626c-4.341 0-8.366-1.239-11.072-3.532a8.424 8.424 0 0 1-3.015-6.483 8.571 8.571 0 0 1 3.015-6.478c2.5-2.151 6.925-3.507 11.072-3.507 4.618 0 8.293 1.1 11.1 3.518a8.436 8.436 0 0 1 2.973 6.468 8.741 8.741 0 0 1-2.973 6.483c-2.61 2.315-6.733 3.532-11.1 3.532v-2.637a8.638 8.638 0 0 0 5.946-2.162 6.806 6.806 0 0 0 2.177-5.215 7.024 7.024 0 0 0-2.177-5.227 9.291 9.291 0 0 0-11.9 0 7.384 7.384 0 0 0 0 10.442 8.756 8.756 0 0 0 5.954 2.162zm-31.763-20a19.183 19.183 0 0 0-7.2 1.369c-2.078.88-3.788 2.29-3.788 4.646a4.687 4.687 0 0 0 1.378 3.3 7.8 7.8 0 0 0 4.125 1.948c1.129.237 3.554.589 5.979.845 2.394.236 4.764.463 5.728.69.765.188 2.04.439 2.04 1.8a2.063 2.063 0 0 1-1.59 1.861 12.412 12.412 0 0 1-4.776.793 21.738 21.738 0 0 1-5.683-.921 6.972 6.972 0 0 1-3.284-2.093 3.456 3.456 0 0 1-.667-1.97h-2.66v6.99h2.934v-.943a.417.417 0 0 1 .634-.329 23.685 23.685 0 0 0 4.3 1.305 19.3 19.3 0 0 0 4.442.519 20.108 20.108 0 0 0 5.965-.79 10.74 10.74 0 0 0 3.549-1.658 4.5 4.5 0 0 0 1.891-3.676 4.961 4.961 0 0 0-1.532-3.624 6.606 6.606 0 0 0-1.893-1.224 14.638 14.638 0 0 0-2.335-.766c-1.521-.362-4.938-.792-6.561-.949a48.677 48.677 0 0 1-5.872-.755 1.37 1.37 0 0 1-1.1-1.241 1.75 1.75 0 0 1 1.006-1.462 12.141 12.141 0 0 1 5.393-1 16.35 16.35 0 0 1 6.252 1.145 7.924 7.924 0 0 1 1.494.846 4.2 4.2 0 0 1 1.461 2.319h2.374v-6.086h-2.641v.705c0 .232-.248.523-.73.288a20.949 20.949 0 0 0-8.633-1.879zm48.728 1.127v2.216h2.05c1.485 0 1.592.784 1.592 1.458v10.4c0 .625.039 1.472-.91 1.472H793.8v2.221h10.842v-2.22H802c-1.051 0-1.109-.447-1.126-1.429v-8.9l14.864 12.547h3.777l-.2-14.172c.026-1.028.086-1.383 1.21-1.383h2.375v-2.209h-11.039v2.209h2.43c1.1 0 1.3.416 1.31 1.383l.135 7.415-12.9-11.006zM833.2 386.3v2.221h12.867v-2.227h-2.435l-.637-.036a.7.7 0 0 1-.5-.414l-.053-.488v-3.506l.094-.333c.175-.193 6.833-7.387 7.136-7.7a2.043 2.043 0 0 1 1.853-.85h2.366v-2.209h-10.6v2.209h1.589a.434.434 0 0 1 .4.693l-4.506 4.981-.128-.012-4.388-4.969c-.317-.371-.057-.693.285-.693h1.557v-2.209h-12.94v2.209h2.3a2.8 2.8 0 0 1 2.03.993c.3.308 6.887 7.378 7.041 7.579s.166.225.166.31v3.506l-.042.488a.8.8 0 0 1-.51.414l-.646.042z" transform="translate(-733.894 -369.626)"/>
</svg>
